<svg xmlns="http://www.w3.org/2000/svg" width="29" height="18" viewBox="0 0 29 18">
    <g fill="none" fill-rule="evenodd" transform="translate(.911 .72)">
        <rect width="28.089" height="17.28" fill="#0072CE" rx="2.8"/>
        <path fill="#FFF" d="M23.71 9.984h-.993c-.1 0-.165.003-.22.042-.058.037-.08.093-.08.167 0 .088.048.148.119.174.057.02.119.026.21.026l.295.008c.298.008.496.06.618.188.022.018.035.038.05.057v-.662zm0 1.535c-.133.198-.39.298-.74.298H21.92v-.5h1.047c.104 0 .176-.013.22-.057a.207.207 0 0 0 .065-.152.193.193 0 0 0-.067-.154c-.04-.035-.097-.052-.192-.052-.511-.017-1.149.017-1.149-.72 0-.338.21-.694.781-.694h1.085v-.463h-1.008c-.304 0-.525.074-.681.19v-.19h-1.49c-.24 0-.519.06-.651.19v-.19h-2.662v.19c-.212-.156-.57-.19-.734-.19h-1.756v.19c-.167-.166-.54-.19-.767-.19h-1.965l-.45.497-.421-.497H8.189v3.25h2.88l.463-.506.437.506 1.775.001v-.764h.174c.236.004.514-.006.759-.114v.877h1.464v-.847h.07c.09 0 .1.003.1.095v.752h4.448c.282 0 .577-.074.74-.208v.208h1.412c.293 0 .58-.042.798-.15v-.606zm-2.173-.93c.106.112.163.254.163.493 0 .501-.306.735-.855.735h-1.061v-.5h1.056c.104 0 .177-.013.223-.057a.209.209 0 0 0 .064-.152.202.202 0 0 0-.066-.154c-.042-.035-.1-.052-.194-.052-.51-.017-1.147.017-1.147-.72 0-.338.207-.694.778-.694h1.092v.496h-.999c-.099 0-.163.004-.218.042-.06.038-.082.094-.082.167 0 .088.05.148.12.174.057.02.118.026.211.026l.293.008c.296.008.499.06.622.188zm-4.913-.144c-.073.044-.163.048-.27.048h-.66V9.97h.67c.097 0 .194.002.26.042.07.038.112.11.112.21 0 .099-.042.18-.112.223zm.329.29c.12.046.22.128.266.195.077.114.088.22.09.426v.461h-.546v-.291c0-.14.013-.348-.088-.456-.08-.084-.201-.103-.4-.103h-.582v.85h-.547V9.488h1.257c.276 0 .477.012.656.11.171.106.28.251.28.517a.652.652 0 0 1-.386.62zm.687-1.247h1.818v.482h-1.275v.423h1.244v.475h-1.244v.464l1.275.002v.483H17.64V9.488zm-3.673 1.075h-.704V9.97h.71c.197 0 .333.082.333.285 0 .202-.13.308-.34.308zm-1.246 1.042l-.836-.948.836-.919v1.867zm-2.16-.273H9.224v-.464h1.195v-.475H9.223V9.97h1.365l.596.678-.622.684zm4.33-1.077c0 .647-.473.781-.949.781h-.679v.781h-1.058l-.67-.77-.698.77H8.68V9.488h2.19l.67.764.693-.764h1.74c.432 0 .918.122.918.767zM6.083 6.804l-.373-.929-.37.929h.743zm8.21-.37c-.075.047-.163.048-.27.048h-.661v-.517h.67c.095 0 .194.004.259.042.07.034.114.106.114.206 0 .101-.041.183-.112.221zm4.719.37l-.377-.929-.375.929h.752zm-8.797 1.005h-.558l-.002-1.824-.79 1.824h-.477l-.792-1.826V7.81H6.488l-.209-.52H5.145l-.21.52h-.592l.975-2.33h.809l.926 2.206V5.48h.889l.712 1.58.655-1.58h.906v2.329zm2.225 0h-1.819v-2.33h1.82v.486h-1.275v.42h1.244v.477h-1.244v.465h1.274v.482zm2.565-1.702a.656.656 0 0 1-.384.62c.12.047.221.129.27.197.076.116.09.22.09.427v.458h-.55l-.002-.294c0-.14.014-.342-.085-.454-.08-.082-.201-.1-.397-.1h-.585v.848h-.544v-2.33h1.252c.278 0 .483.008.66.112.172.104.275.256.275.516zm.871 1.702h-.555v-2.33h.555v2.33zm6.446 0h-.772L20.518 6.06v1.748H19.41l-.212-.52h-1.13l-.206.52h-.637c-.265 0-.6-.06-.79-.258-.191-.198-.29-.465-.29-.889 0-.345.059-.661.293-.91.176-.186.451-.272.827-.272h.527v.499h-.516c-.2 0-.311.03-.42.138-.092.098-.156.283-.156.527 0 .25.049.43.15.547.084.092.236.12.38.12h.244l.767-1.831h.816l.922 2.203V5.48h.83l.956 1.622V5.48h.558v2.329zm-17.986.457h.93l.21-.517h.47l.21.517h1.83v-.395l.163.397h.95l.164-.403v.401h4.55l-.003-.849h.088c.062.002.08.008.08.112v.737h2.353v-.198c.19.104.485.198.873.198h.99l.212-.517h.47l.206.517h1.908v-.491l.289.491h1.528V5.018h-1.512v.384l-.212-.384H19.53v.384l-.195-.384h-2.097c-.35 0-.66.05-.908.19v-.19h-1.447v.19c-.159-.144-.375-.19-.615-.19H8.983l-.355.839-.364-.839H6.599v.384l-.183-.384h-1.42l-.66 1.544v1.704z"/>
    </g>
</svg>
