<svg xmlns="http://www.w3.org/2000/svg" width="120" height="120" viewBox="0 0 120 120">
    <g fill="none" fill-rule="evenodd" transform="translate(15 18)">
        <path fill="#FFF" d="M2.99 22.89h74.2v44.48H2.99z"/>
        <path fill="#FF969F" d="M5.52 7.68a3.09 3.09 0 0 0-3.1 3.08v12.29H76.9V10.76a3.08 3.08 0 0 0-.9-2.18 3.14 3.14 0 0 0-2.2-.9H5.52z"/>
        <path fill="#FF6370" d="M2.42 18.38H76.9v4.61H2.42z"/>
        <path fill="#FFCBCB" d="M73.8 8.37H5.52a3.09 3.09 0 0 0-2.19.9 3 3 0 0 0-.91 2.17v4.61a3 3 0 0 1 .91-2.17A3.09 3.09 0 0 1 5.52 13H73.8a3.09 3.09 0 0 1 2.19.9 3 3 0 0 1 .91 2.17v-4.63a3 3 0 0 0-.9-2.17 3.09 3.09 0 0 0-2.2-.9z"/>
        <circle cx="67.7" cy="32.38" r="1.6" fill="#727EA5"/>
        <circle cx="58.41" cy="32.49" r="1.6" fill="#727EA5"/>
        <circle cx="49.07" cy="32.49" r="1.6" fill="#727EA5"/>
        <circle cx="39.79" cy="32.49" r="1.6" fill="#727EA5"/>
        <circle cx="11.87" cy="41.71" r="1.6" fill="#727EA5"/>
        <circle cx="21.15" cy="41.71" r="1.6" fill="#727EA5"/>
        <circle cx="30.48" cy="41.71" r="1.6" fill="#727EA5"/>
        <circle cx="39.79" cy="41.71" r="1.6" fill="#727EA5"/>
        <circle cx="49.13" cy="41.71" r="1.6" fill="#727EA5"/>
        <circle cx="39.79" cy="50.89" r="1.6" fill="#727EA5"/>
        <circle cx="30.48" cy="50.89" r="1.6" fill="#727EA5"/>
        <circle cx="21.15" cy="50.89" r="1.6" fill="#727EA5"/>
        <circle cx="11.82" cy="50.89" r="1.6" fill="#727EA5"/>
        <circle cx="11.9" cy="60.18" r="1.6" fill="#727EA5"/>
        <circle cx="21.21" cy="60.18" r="1.6" fill="#727EA5"/>
        <circle cx="30.45" cy="60.05" r="1.6" fill="#727EA5"/>
        <circle cx="39.79" cy="60.15" r="1.6" fill="#727EA5"/>
        <path fill="#D1D4DB" d="M73.93 64.72H5.66a3.09 3.09 0 0 1-3.11-3.07v4.61a3.09 3.09 0 0 0 3.11 3.07h68.27a3.14 3.14 0 0 0 2.2-.9c.576-.575.9-1.356.9-2.17v-4.61a3 3 0 0 1-.9 2.17 3.14 3.14 0 0 1-2.2.9z"/>
        <circle cx="70.38" cy="63.51" r="18.07" fill="#FFF"/>
        <path fill="#727EA5" d="M69.91 62.07h9.84a1.41 1.41 0 1 1 0 2.81h-9.84a1.41 1.41 0 1 1 0-2.81z"/>
        <path fill="#727EA5" d="M71.31 53.63v9.84a1.41 1.41 0 1 1-2.81 0v-9.84a1.41 1.41 0 1 1 2.81 0z"/>
        <path fill="#D1D4DB" d="M71.31 77c-9.334.04-17.242-6.866-18.46-16.12a18.38 18.38 0 0 0 8.45 18 18.79 18.79 0 0 0 20 0 18.36 18.36 0 0 0 8.45-18C88.533 70.126 80.636 77.03 71.31 77z"/>
        <path fill="#727EA5" fill-rule="nonzero" d="M70.83 46.57c-9.31.094-16.792 7.701-16.73 17.012.063 9.311 7.645 16.818 16.956 16.787C80.367 80.34 87.9 72.781 87.9 63.47c-.055-9.377-7.693-16.939-17.07-16.9zm0 36.88C59.804 83.356 50.934 74.357 51 63.331c.066-11.026 9.044-19.918 20.07-19.88 11.026.038 19.94 8.993 19.93 20.019-.055 11.086-9.084 20.03-20.17 19.98z"/>
        <path fill="#727EA5" d="M76.91 40.31a1.3 1.3 0 0 1-1.4-1.39V23.55a1.55 1.55 0 0 1 1.4-1.68c.86 0 1.4-4.84 1.4-4v21a1.3 1.3 0 0 1-1.4 1.44zM46 70.63H5.66c-2.57 0-4.66-1.56-4.66-4.1v-43a1.45 1.45 0 0 1 1.4-1.57 1.48 1.48 0 0 1 1.44 1.57v43c.01.85.7 1.535 1.55 1.54H46c.86 0 1.47.45 1.47 1.3 0 .85-.61 1.26-1.47 1.26z"/>
        <path fill="#727EA5" fill-rule="nonzero" d="M3.84 21.25h71.78V10a1.55 1.55 0 0 0-1.55-1.53H5.39A1.55 1.55 0 0 0 3.84 10v11.25zm72.93 2.82H2.55A1.54 1.54 0 0 1 1 22.53v-12.1a4.65 4.65 0 0 1 4.66-4.61h68a4.65 4.65 0 0 1 4.66 4.61v12.1a1.55 1.55 0 0 1-1.55 1.54z"/>
        <rect width="3.25" height="9.25" x="22.53" y="3.02" fill="#D2D8EA" rx="1.62"/>
        <rect width="3.25" height="9.25" x="53.64" y="3.02" fill="#D2D8EA" rx="1.62"/>
        <path fill="#727EA5" fill-rule="nonzero" d="M55.31 3.07a1.54 1.54 0 0 0-1.55 1.54v6.15a1.55 1.55 0 1 0 3.1 0V4.61a1.54 1.54 0 0 0-1.55-1.54zm0 12.29a4.62 4.62 0 0 1-4.65-4.6V4.61a4.66 4.66 0 0 1 9.31 0v6.15a4.64 4.64 0 0 1-4.66 4.6zM24.24 3.07a1.54 1.54 0 0 0-1.55 1.54v6.15a1.55 1.55 0 1 0 3.1 0V4.61a1.55 1.55 0 0 0-1.55-1.54zm0 12.29a4.63 4.63 0 0 1-4.66-4.6V4.61a4.66 4.66 0 0 1 9.31 0v6.15a4.62 4.62 0 0 1-4.65 4.6z"/>
    </g>
</svg>
