<svg xmlns="http://www.w3.org/2000/svg" width="120" height="120" viewBox="0 0 120 120">
    <g fill="none" fill-rule="evenodd" transform="translate(8 -4)">
        <path fill="#939FC6" d="M14.882 44.97h74.41a2.49 2.49 0 0 1 2.48 2.498V99.1h-79.37V47.468a2.49 2.49 0 0 1 2.48-2.498z"/>
        <path fill="#727EA5" fill-rule="nonzero" d="M91.772 99.933h-79.37a.83.83 0 0 1-.827-.833V47.468c0-1.84 1.48-3.33 3.307-3.33h74.41c1.826 0 3.306 1.49 3.306 3.33V99.1a.83.83 0 0 1-.826.833zm-78.544-1.665h77.717v-50.8c0-.92-.74-1.665-1.654-1.665h-74.41a1.66 1.66 0 0 0-1.653 1.665v50.8z"/>
        <path fill="#CED8EE" d="M62.008 99.1H42.165a1.66 1.66 0 0 1-1.653-1.665v-.833h23.15v.833c0 .92-.74 1.665-1.654 1.665z"/>
        <path fill="#727EA5" fill-rule="nonzero" d="M62.008 99.933H42.165a2.49 2.49 0 0 1-2.48-2.498v-.833c0-.46.37-.833.827-.833h23.15a.83.83 0 0 1 .826.833v.833a2.49 2.49 0 0 1-2.48 2.498zm-20.67-2.498c0 .46.37.833.827.833h19.843a.83.83 0 0 0 .827-.833H41.339z"/>
        <path fill="#E0F3FF" d="M15.709 48.301h72.756v44.97H15.709z"/>
        <path fill="#C7E9FF" d="M88.423 50.333l.042-2.032H15.709v36.825zM88.233 54.963L15.71 89.665v-2.498l72.549-34.71z"/>
        <path fill="#0070B8" d="M15.667 48.301h72.797v3.331H15.667z" opacity=".3"/>
        <path fill="#727EA5" fill-rule="nonzero" d="M88.465 94.104H15.709a.83.83 0 0 1-.827-.833v-44.97c0-.46.37-.833.827-.833h72.756a.83.83 0 0 1 .826.833v44.97a.83.83 0 0 1-.826.833zm-71.93-1.666h71.103V49.134H16.535v43.304z"/>
        <path fill="#EEF6FF" d="M98.386 96.602H63.66v.833c0 .92-.74 1.665-1.653 1.665H42.165a1.66 1.66 0 0 1-1.653-1.665v-.833H5.787V99.1c0 1.84 1.481 3.332 3.307 3.332H95.08c1.826 0 3.307-1.492 3.307-3.332v-2.498z"/>
        <path fill="#7690A8" d="M95.079 99.933H9.094c-1.826 0-3.307-1.491-3.307-3.33V99.1c0 1.84 1.481 3.332 3.307 3.332H95.08c1.826 0 3.307-1.492 3.307-3.332v-2.498c0 1.84-1.48 3.331-3.307 3.331z" opacity=".3"/>
        <path fill="#727EA5" fill-rule="nonzero" d="M95.079 103.264H9.094c-2.283 0-4.133-1.864-4.133-4.164v-2.498c0-.46.37-.833.826-.833h34.725a.83.83 0 0 1 .827.833v.833c0 .46.37.833.826.833h19.843a.83.83 0 0 0 .827-.833v-.833c0-.46.37-.833.826-.833h34.725a.83.83 0 0 1 .827.833V99.1c0 2.3-1.851 4.164-4.134 4.164zm-88.465-5.83V99.1a2.49 2.49 0 0 0 2.48 2.499H95.08a2.49 2.49 0 0 0 2.48-2.499v-1.665H64.49a2.49 2.49 0 0 1-2.481 2.498H42.165a2.49 2.49 0 0 1-2.48-2.498H6.615z"/>
        <path fill="#FFF" d="M23.976 38.308h56.22v54.963h-56.22z"/>
        <path fill="#7690A8" d="M23.976 89.94h56.22v3.33h-56.22z" opacity=".3"/>
        <path fill="#EEF6FF" d="M80.197 31.646v6.662h-56.22v-6.662c0-1.84 1.48-3.332 3.306-3.332H76.89c1.826 0 3.307 1.492 3.307 3.332z"/>
        <path fill="#FFF" d="M76.89 28.314H27.283c-1.826 0-3.307 1.492-3.307 3.332v2.498c0-1.84 1.481-3.331 3.307-3.331H76.89c1.826 0 3.307 1.491 3.307 3.33v-2.497c0-1.84-1.48-3.332-3.307-3.332z"/>
        <path fill="#727EA5" fill-rule="nonzero" d="M80.197 94.104h-56.22a.83.83 0 0 1-.827-.833V31.646c0-2.3 1.85-4.164 4.133-4.164H76.89c2.283 0 4.134 1.864 4.134 4.164V93.27a.83.83 0 0 1-.827.833zm-55.394-1.666H79.37V31.646a2.49 2.49 0 0 0-2.48-2.499H27.283a2.49 2.49 0 0 0-2.48 2.499v60.792z"/>
        <path fill="#727EA5" d="M80.197 39.14h-56.22a.83.83 0 0 1-.827-.832c0-.46.37-.833.826-.833h56.22a.83.83 0 0 1 .828.833.83.83 0 0 1-.827.833z"/>
        <rect width="29.764" height="3.331" x="47.126" y="31.646" fill="#FFF" rx="1.666"/>
        <path fill="#727EA5" fill-rule="nonzero" d="M75.236 35.81H48.78a2.49 2.49 0 0 1-2.48-2.499 2.49 2.49 0 0 1 2.48-2.498h26.456a2.49 2.49 0 0 1 2.48 2.498 2.49 2.49 0 0 1-2.48 2.498zM48.78 32.477a.83.83 0 0 0-.827.833c0 .46.37.833.827.833h26.456a.83.83 0 0 0 .827-.833.83.83 0 0 0-.827-.833H48.78z"/>
        <ellipse cx="28.937" cy="33.311" fill="#FF9797" rx="1.654" ry="1.666"/>
        <path fill="#727EA5" fill-rule="nonzero" d="M28.937 35.81a2.49 2.49 0 0 1-2.48-2.499 2.49 2.49 0 0 1 2.48-2.498 2.49 2.49 0 0 1 2.48 2.498 2.49 2.49 0 0 1-2.48 2.498zm0-3.332a.83.83 0 0 0-.827.833c0 .46.37.833.827.833a.83.83 0 0 0 .827-.833.83.83 0 0 0-.827-.833z"/>
        <ellipse cx="35.551" cy="33.311" fill="#FFC661" rx="1.654" ry="1.666"/>
        <path fill="#727EA5" fill-rule="nonzero" d="M35.551 35.81a2.49 2.49 0 0 1-2.48-2.499 2.49 2.49 0 0 1 2.48-2.498 2.49 2.49 0 0 1 2.48 2.498 2.49 2.49 0 0 1-2.48 2.498zm0-3.332a.83.83 0 0 0-.827.833c0 .46.37.833.827.833a.83.83 0 0 0 .827-.833.83.83 0 0 0-.827-.833z"/>
        <ellipse cx="42.165" cy="33.311" fill="#B1F1A8" rx="1.654" ry="1.666"/>
        <path fill="#727EA5" fill-rule="nonzero" d="M42.165 35.81a2.49 2.49 0 0 1-2.48-2.499 2.49 2.49 0 0 1 2.48-2.498 2.49 2.49 0 0 1 2.48 2.498 2.49 2.49 0 0 1-2.48 2.498zm0-3.332a.83.83 0 0 0-.826.833c0 .46.37.833.826.833a.83.83 0 0 0 .827-.833.83.83 0 0 0-.827-.833z"/>
        <path fill="#C9C1F5" d="M28.937 48.301h46.299v13.324H28.937z"/>
        <path fill="#727EA5" fill-rule="nonzero" d="M75.236 62.458H28.937a.83.83 0 0 1-.827-.832V48.3c0-.46.37-.833.827-.833h46.3a.83.83 0 0 1 .826.833v13.325a.83.83 0 0 1-.827.832zm-45.472-1.665h44.645v-11.66H29.764v11.66z"/>
        <path fill="#D4EDFF" d="M28.937 68.288h12.402v8.328H28.937z"/>
        <path fill="#727EA5" fill-rule="nonzero" d="M41.339 77.448H28.937a.83.83 0 0 1-.827-.832v-8.328c0-.46.37-.833.827-.833h12.402a.83.83 0 0 1 .826.833v8.328a.83.83 0 0 1-.826.832zm-11.575-1.665h10.748V69.12H29.764v6.662z"/>
        <path fill="#D4EDFF" d="M46.299 68.288h11.575v8.328H46.299z"/>
        <path fill="#727EA5" fill-rule="nonzero" d="M57.874 77.448H46.299a.83.83 0 0 1-.827-.832v-8.328c0-.46.37-.833.827-.833h11.575a.83.83 0 0 1 .827.833v8.328a.83.83 0 0 1-.827.832zm-10.748-1.665h9.921V69.12h-9.921v6.662z"/>
        <path fill="#D4EDFF" d="M62.835 68.288h12.402v8.328H62.835z"/>
        <path fill="#727EA5" fill-rule="nonzero" d="M75.236 77.448H62.835a.83.83 0 0 1-.827-.832v-8.328c0-.46.37-.833.827-.833h12.401a.83.83 0 0 1 .827.833v8.328a.83.83 0 0 1-.827.832zm-11.575-1.665H74.41V69.12H63.661v6.662z"/>
        <g fill="#6D6DAA" opacity=".5">
            <path d="M38.031 44.137h-9.094a.83.83 0 0 1-.827-.833c0-.46.37-.832.827-.832h9.094a.83.83 0 0 1 .827.832.83.83 0 0 1-.827.833zM75.236 44.137H71.93a.83.83 0 0 1-.827-.833c0-.46.37-.832.827-.832h3.307a.83.83 0 0 1 .827.832.83.83 0 0 1-.827.833zM68.622 44.137h-3.307a.83.83 0 0 1-.827-.833c0-.46.37-.832.827-.832h3.307a.83.83 0 0 1 .827.832.83.83 0 0 1-.827.833zM62.008 44.137H58.7a.83.83 0 0 1-.827-.833c0-.46.37-.832.827-.832h3.307a.83.83 0 0 1 .827.832.83.83 0 0 1-.827.833zM55.394 44.137h-3.307a.83.83 0 0 1-.827-.833c0-.46.37-.832.827-.832h3.307a.83.83 0 0 1 .826.832.83.83 0 0 1-.826.833zM49.606 65.79h-.157a.502.502 0 0 1-.157-.05.627.627 0 0 1-.149-.076l-.124-.1a.959.959 0 0 1-.173-.274.838.838 0 0 1-.066-.333.836.836 0 0 1 .24-.592.76.76 0 0 1 .272-.175.823.823 0 0 1 .901.175c.239.239.31.599.182.911a.827.827 0 0 1-.769.513zM52.087 65.79a.83.83 0 0 1-.761-1.15.775.775 0 0 1 .174-.275.824.824 0 0 1 1.174 0c.154.158.24.37.24.592a.878.878 0 0 1-.24.59.824.824 0 0 1-.587.242zM54.567 65.79a.834.834 0 0 1-.308-1.604.823.823 0 0 1 1.002.311.837.837 0 0 1-.107 1.05l-.124.1a.627.627 0 0 1-.149.076l-.149.066h-.165zM41.339 80.78H28.937a.83.83 0 0 1-.827-.833c0-.46.37-.833.827-.833h12.402a.83.83 0 0 1 .826.833.83.83 0 0 1-.826.832zM48.78 80.78H46.3a.83.83 0 0 1-.828-.833c0-.46.37-.833.827-.833h2.48a.83.83 0 0 1 .827.833.83.83 0 0 1-.826.832zM57.874 80.78H51.26a.83.83 0 0 1-.827-.833c0-.46.37-.833.827-.833h6.614a.83.83 0 0 1 .827.833.83.83 0 0 1-.827.832zM75.236 80.78H62.835a.83.83 0 0 1-.827-.833c0-.46.37-.833.827-.833h12.401a.83.83 0 0 1 .827.833.83.83 0 0 1-.827.832zM37.205 84.11h-8.268a.83.83 0 0 1-.827-.832c0-.46.37-.833.827-.833h8.268a.83.83 0 0 1 .826.833.83.83 0 0 1-.826.833zM41.339 84.11h-1.654a.83.83 0 0 1-.827-.832c0-.46.37-.833.827-.833h1.654a.83.83 0 0 1 .826.833.83.83 0 0 1-.826.833zM57.874 84.11H46.299a.83.83 0 0 1-.827-.832c0-.46.37-.833.827-.833h11.575a.83.83 0 0 1 .827.833.83.83 0 0 1-.827.833zM75.236 84.11H62.835a.83.83 0 0 1-.827-.832c0-.46.37-.833.827-.833h12.401a.83.83 0 0 1 .827.833.83.83 0 0 1-.827.833zM41.339 87.442H28.937a.83.83 0 0 1-.827-.833c0-.46.37-.833.827-.833h12.402a.83.83 0 0 1 .826.833.83.83 0 0 1-.826.833zM57.874 87.442H46.299a.83.83 0 0 1-.827-.833c0-.46.37-.833.827-.833h11.575a.83.83 0 0 1 .827.833.83.83 0 0 1-.827.833zM75.236 87.442H66.97a.83.83 0 0 1-.827-.833c0-.46.37-.833.827-.833h8.267a.83.83 0 0 1 .827.833.83.83 0 0 1-.827.833zM64.488 87.442h-1.653a.83.83 0 0 1-.827-.833c0-.46.37-.833.827-.833h1.653a.83.83 0 0 1 .827.833.83.83 0 0 1-.827.833z"/>
        </g>
    </g>
</svg>
