<svg xmlns="http://www.w3.org/2000/svg" width="120" height="120" viewBox="0 0 120 120">
    <g fill="none" fill-rule="evenodd" transform="translate(7 22)">
        <rect width="101.859" height="72.5" x="2.07" y="2.083" fill="#E6F7FF" rx="5.28"/>
        <path fill="#FFF" d="M98.96 2.083H7.04c-2.745 0-4.97 2.239-4.97 5v5c0-2.761 2.225-5 4.97-5h91.92c2.745 0 4.97 2.239 4.97 5v-5c0-2.761-2.225-5-4.97-5z"/>
        <path fill="#727EA5" fill-rule="nonzero" d="M98.96 75.833H7.04c-3.431 0-6.212-2.798-6.212-6.25v-62.5c0-3.451 2.78-6.25 6.211-6.25h91.922c3.43 0 6.21 2.799 6.21 6.25v62.5c0 3.452-2.78 6.25-6.21 6.25zM7.04 3.333c-2.06 0-3.728 1.68-3.728 3.75v62.5c0 2.071 1.669 3.75 3.727 3.75h91.922c2.058 0 3.727-1.679 3.727-3.75v-62.5c0-2.07-1.669-3.75-3.727-3.75H7.039z"/>
        <path fill="#80CDFF" d="M12.008 18.083h34.781v41.25H12.008z"/>
        <path fill="#97F6D3" d="M36.578 50.583s-2.136-.875-2.062-.825a5.94 5.94 0 0 1-5.118 2.75c-2.173 0-4.62-1.25-5.105-2.712l-1.987.837c-3.007 1.25-4.97 3.538-4.97 6.825v1.875H41.46v-1.937c0-3.25-1.913-5.563-4.882-6.813z"/>
        <path fill="#EFDCD2" d="M33.597 46.67a2.937 2.937 0 0 0 .857 3.063c-.67 1.45-3.254 2.175-5.056 2.7-1.8-.512-4.596-1.25-5.055-2.7a2.887 2.887 0 0 0 .844-3.062h8.41z"/>
        <path fill="#727EA5" d="M29.398 53.683c-2.484 0-5.527-1.362-6.21-3.562a1.254 1.254 0 0 1 .546-1.463c.327-.415.459-.954.36-1.475a1.257 1.257 0 0 1 .076-1.292 1.24 1.24 0 0 1 2.185.267 4.072 4.072 0 0 1-.447 3.75 5.346 5.346 0 0 0 3.515 1.25 5.137 5.137 0 0 0 3.49-1.362 4.147 4.147 0 0 1-.434-3.65 1.239 1.239 0 0 1 1.608-.585c.605.266.898.963.665 1.585a1.82 1.82 0 0 0 .423 1.525 1.38 1.38 0 0 1 .434 1.587 6.996 6.996 0 0 1-6.21 3.425z"/>
        <path fill="#727EA5" d="M41.46 60.583c-.686 0-1.242-.56-1.242-1.25v-1.937c0-2.5-1.391-4.45-4.137-5.65l-2.062-.888a1.255 1.255 0 0 1-.254-2.153 1.237 1.237 0 0 1 1.236-.147l2.062.888c3.64 1.575 5.64 4.4 5.64 7.937v1.95c0 .69-.557 1.25-1.243 1.25zM17.337 60.583c-.686 0-1.242-.56-1.242-1.25v-1.875c0-3.587 2.037-6.425 5.739-7.975l1.975-.825a1.242 1.242 0 0 1 1.627.675 1.255 1.255 0 0 1-.67 1.638l-1.988.862a6.108 6.108 0 0 0-4.211 5.675v1.825c0 .686-.549 1.243-1.23 1.25z"/>
        <path fill="#F9E2DC" d="M30.305 48.32h-1.813a3.913 3.913 0 0 1-2.82-1.162l-1.242-1.25a7.9 7.9 0 0 1-2.298-5.575v-5.5c0-2.381 1.918-4.312 4.285-4.312h5.863c2.367 0 4.286 1.93 4.286 4.312v5.5a7.902 7.902 0 0 1-2.199 5.575l-1.242 1.25a3.913 3.913 0 0 1-2.82 1.163z"/>
        <path fill="#CC7E54" d="M32.33 30.508h-5.863a4.272 4.272 0 0 0-3.03 1.263 4.326 4.326 0 0 0-1.256 3.05v1.137c0-2.175 3.615-4 6.497-4a3.275 3.275 0 0 0-1.08 3.625c3.502-2.612 4.968-.225 7.825-.85 1.242-.262 1.242 2.288 1.242 2.288v-2.188a4.326 4.326 0 0 0-1.268-3.075 4.272 4.272 0 0 0-3.067-1.25z" opacity=".3"/>
        <path fill="#FFD599" d="M33.212 27.108c2.559 1.25 5.577 4.125 4.26 8.488-.198.65-.707.087-.844.362 0 0 0-2.5-1.242-2.287-2.895.625-4.31-1.763-7.826.85a3.275 3.275 0 0 1 1.08-3.663c-2.894 0-6.496 1.813-6.496 4 0 0-1.006-.737-1.08-1.45-.36-3.275 1.378-4.875 4.223-6.137.546-.238.136-3.463.733-2.888 1.677 1.6 5.863 2.125 7.192 2.725z"/>
        <path fill="#F9E2DC" d="M36.628 37.058c.386-.006.76.143 1.035.416.276.273.43.645.43 1.034v.725c0 .801-.644 1.45-1.44 1.45v-3.625h-.025zM22.206 40.683c-.796 0-1.44-.649-1.44-1.45v-.725c0-.8.644-1.45 1.44-1.45v3.625z"/>
        <path fill="#727EA5" d="M36.628 60.583c-.686 0-1.242-.56-1.242-1.25v-3.012c0-.69.556-1.25 1.242-1.25.686 0 1.242.56 1.242 1.25v3.012c0 .69-.556 1.25-1.242 1.25zM22.169 60.583c-.686 0-1.242-.56-1.242-1.25v-3.012c0-.69.556-1.25 1.242-1.25.686 0 1.242.56 1.242 1.25v3.012c0 .69-.556 1.25-1.242 1.25z"/>
        <path fill="#727EA5" fill-rule="nonzero" d="M36.939 37.27c-.278 0-.552-.055-.808-.162a1.25 1.25 0 0 1-.745-1.15 4.275 4.275 0 0 0-.124-.987 7.828 7.828 0 0 1-2.957-.225 3.907 3.907 0 0 0-3.975.787 1.236 1.236 0 0 1-1.801-.362 3.646 3.646 0 0 1-.273-2.613c-1.59.563-2.845 1.55-2.845 2.313a1.25 1.25 0 0 1-.678 1.117 1.236 1.236 0 0 1-1.297-.105 3.813 3.813 0 0 1-1.59-2.325c-.385-4.15 2.1-6.05 4.51-7.212v-.775c0-1.088.099-2.025 1.005-2.388a1.385 1.385 0 0 1 1.479.313 12.5 12.5 0 0 0 4.62 1.8c.754.164 1.494.39 2.212.675 3.217 1.5 6.434 5 4.968 10a1.765 1.765 0 0 1-1.726 1.25l.025.05zm-1.33-4.862c.312 0 .62.077.895.225a6.65 6.65 0 0 0-3.727-4.387 14.49 14.49 0 0 0-1.776-.525 22.916 22.916 0 0 1-4.062-1.325c-.075.912-.273 1.687-1.044 2.025-2.26 1-3.304 2.025-3.49 3.587a10.05 10.05 0 0 1 6.36-2.387c.495.06.907.412 1.045.895a1.255 1.255 0 0 1-.412 1.317c-.17.138-.316.303-.434.488a6.458 6.458 0 0 1 3.826 0 5.173 5.173 0 0 0 2.322.15c.163-.042.33-.063.497-.063z"/>
        <path fill="#727EA5" d="M36.628 41.933c-.686 0-1.242-.56-1.242-1.25v-3.625c0-.69.556-1.25 1.242-1.25a2.687 2.687 0 0 1 1.91.786c.507.506.795 1.195.798 1.914v.725a2.721 2.721 0 0 1-.798 1.915 2.687 2.687 0 0 1-1.91.785zM22.169 41.933a2.687 2.687 0 0 1-1.91-.785 2.721 2.721 0 0 1-.798-1.915v-.725a2.704 2.704 0 0 1 2.683-2.7c.686 0 1.242.56 1.242 1.25v3.638a1.246 1.246 0 0 1-1.217 1.237z"/>
        <path fill="#727EA5" fill-rule="nonzero" d="M29.398 45.446a2.677 2.677 0 0 1-2.298-1.113 1.255 1.255 0 0 1 .38-1.655 1.237 1.237 0 0 1 1.67.255c.164.034.333.034.497 0a1.237 1.237 0 0 1 1.677-.35 1.256 1.256 0 0 1 .373 1.75 2.677 2.677 0 0 1-2.299 1.113z"/>
        <path fill="#727EA5" d="M30.305 49.596h-1.813a5.126 5.126 0 0 1-3.652-1.513l-1.106-1.112a9.656 9.656 0 0 1-2.82-6.85v-5.288c0-.69.556-1.25 1.242-1.25.687 0 1.243.56 1.243 1.25v5.3a7.16 7.16 0 0 0 2.087 5.075l1.093 1.1c.504.506 1.188.79 1.9.788h1.814a2.675 2.675 0 0 0 1.9-.788l1.093-1.1a7.16 7.16 0 0 0 2.087-5.075v-4.162c0-.69.557-1.25 1.243-1.25s1.242.56 1.242 1.25v4.162a9.656 9.656 0 0 1-2.82 6.85l-1.093 1.1a5.127 5.127 0 0 1-3.64 1.513z"/>
        <ellipse cx="1.515" cy="1.925" fill="#FF9797" opacity=".3" rx="1.081" ry="1.087" transform="translate(24.43 39.333)"/>
        <ellipse cx="2.211" cy="1.925" fill="#FF9797" opacity=".3" rx="1.081" ry="1.087" transform="translate(30.64 39.333)"/>
        <ellipse cx="31.883" cy="38.083" fill="#727EA5" rx="1.242" ry="1.25"/>
        <ellipse cx="26.914" cy="38.083" fill="#727EA5" rx="1.242" ry="1.25"/>
        <path fill="#FFF" d="M46.79 25.296L12.007 41.77v3.75l34.781-16.475zM46.79 18.083H12.007v20.663l34.781-16.263z" opacity=".3"/>
        <path fill="#1C64BA" d="M12.008 18.083h34.78v3.75h-34.78z" opacity=".3"/>
        <path fill="#727EA5" fill-rule="nonzero" d="M46.79 60.583H12.007c-.686 0-1.242-.56-1.242-1.25v-41.25c0-.69.556-1.25 1.242-1.25h34.781c.686 0 1.242.56 1.242 1.25v41.25c0 .69-.556 1.25-1.242 1.25zm-33.54-2.5h32.297v-38.75H13.25v38.75z"/>
        <g fill="#6D6DAA" opacity=".5">
            <path d="M70.39 21.833H56.728c-.686 0-1.243-.56-1.243-1.25s.557-1.25 1.243-1.25H70.39c.686 0 1.242.56 1.242 1.25s-.556 1.25-1.242 1.25zM87.781 26.833H56.727c-.686 0-1.243-.56-1.243-1.25s.557-1.25 1.243-1.25H87.78c.686 0 1.242.56 1.242 1.25s-.556 1.25-1.242 1.25zM74.117 35.583h-17.39c-.686 0-1.243-.56-1.243-1.25s.557-1.25 1.243-1.25h17.39c.686 0 1.242.56 1.242 1.25s-.556 1.25-1.242 1.25zM69.148 45.583H56.727c-.686 0-1.243-.56-1.243-1.25s.557-1.25 1.243-1.25h12.421c.686 0 1.243.56 1.243 1.25s-.557 1.25-1.243 1.25zM86.54 35.583h-8.696c-.686 0-1.242-.56-1.242-1.25s.556-1.25 1.242-1.25h8.695c.686 0 1.242.56 1.242 1.25s-.556 1.25-1.242 1.25zM55.484 58.083c-.686 0-1.242-.56-1.242-1.25v-2.5c0-.69.556-1.25 1.242-1.25.686 0 1.243.56 1.243 1.25v2.5c0 .69-.557 1.25-1.243 1.25zM59.21 58.083c-.685 0-1.241-.56-1.241-1.25v-2.5c0-.69.556-1.25 1.242-1.25.686 0 1.242.56 1.242 1.25v2.5c0 .69-.556 1.25-1.242 1.25zM62.938 58.083c-.687 0-1.243-.56-1.243-1.25v-2.5c0-.69.556-1.25 1.243-1.25.686 0 1.242.56 1.242 1.25v2.5c0 .69-.556 1.25-1.242 1.25zM66.664 58.083c-.686 0-1.242-.56-1.242-1.25v-2.5c0-.69.556-1.25 1.242-1.25.686 0 1.242.56 1.242 1.25v2.5c0 .69-.556 1.25-1.242 1.25zM75.36 58.083c-.687 0-1.243-.56-1.243-1.25v-2.5c0-.69.556-1.25 1.242-1.25.686 0 1.243.56 1.243 1.25v2.5c0 .69-.557 1.25-1.243 1.25zM79.086 58.083c-.686 0-1.242-.56-1.242-1.25v-2.5c0-.69.556-1.25 1.242-1.25.686 0 1.242.56 1.242 1.25v2.5c0 .69-.556 1.25-1.242 1.25zM82.813 58.083c-.687 0-1.243-.56-1.243-1.25v-2.5c0-.69.556-1.25 1.243-1.25.686 0 1.242.56 1.242 1.25v2.5c0 .69-.556 1.25-1.242 1.25zM86.54 58.083c-.687 0-1.243-.56-1.243-1.25v-2.5c0-.69.556-1.25 1.242-1.25.686 0 1.242.56 1.242 1.25v2.5c0 .69-.556 1.25-1.242 1.25zM90.266 58.083c-.686 0-1.243-.56-1.243-1.25v-2.5c0-.69.557-1.25 1.243-1.25s1.242.56 1.242 1.25v2.5c0 .69-.556 1.25-1.242 1.25zM93.992 58.083c-.686 0-1.242-.56-1.242-1.25v-2.5c0-.69.556-1.25 1.242-1.25.686 0 1.242.56 1.242 1.25v2.5c0 .69-.556 1.25-1.242 1.25zM60.453 40.583h-3.726c-.686 0-1.243-.56-1.243-1.25s.557-1.25 1.243-1.25h3.726c.686 0 1.242.56 1.242 1.25s-.556 1.25-1.242 1.25zM93.992 35.583h-3.726c-.686 0-1.243-.56-1.243-1.25s.557-1.25 1.243-1.25h3.726c.686 0 1.242.56 1.242 1.25s-.556 1.25-1.242 1.25zM93.992 40.583H64.18c-.686 0-1.242-.56-1.242-1.25s.556-1.25 1.242-1.25h29.812c.686 0 1.242.56 1.242 1.25s-.556 1.25-1.242 1.25z"/>
        </g>
    </g>
</svg>
