<svg xmlns="http://www.w3.org/2000/svg" xmlns:xlink="http://www.w3.org/1999/xlink" width="29" height="18" viewBox="0 0 29 18">
    <defs>
        <rect id="a" width="28.089" height="17.28" rx="2.8"/>
        <path id="b" d="M6.774 17.28H25.28a2.802 2.802 0 0 0 2.809-2.8V9.706S20.56 14.938 6.774 17.28z"/>
    </defs>
    <g fill="none" fill-rule="evenodd">
        <g transform="translate(.609 .72)">
            <rect width="27.389" height="16.58" x=".35" y=".35" stroke="#E6772F" stroke-width=".7" rx="2.8"/>
            <use fill="#E6772F" xlink:href="#b"/>
        </g>
        <path fill="#1A1919" d="M5.746 9.309c-.21.185-.48.265-.909.265H4.66V7.368h.178c.43 0 .688.076.909.27.228.2.365.51.365.83 0 .321-.137.642-.365.84zM4.97 6.803h-.974v3.337h.968c.516 0 .888-.12 1.214-.386.388-.315.617-.79.617-1.282 0-.985-.75-1.669-1.825-1.669zM7.101 6.803h.661v3.337h-.66zM9.385 8.082c-.399-.143-.515-.24-.515-.42 0-.209.208-.368.494-.368.2 0 .363.078.537.269l.345-.445a1.497 1.497 0 0 0-.998-.37c-.602 0-1.06.41-1.06.954 0 .46.212.695.835.917.26.089.392.15.459.19a.395.395 0 0 1 .199.344c0 .272-.22.471-.516.471a.785.785 0 0 1-.723-.446l-.428.407c.306.439.672.635 1.177.635.688 0 1.174-.452 1.174-1.096 0-.53-.225-.771-.98-1.042M10.573 8.472c0 .982.785 1.742 1.795 1.742.285 0 .53-.055.83-.195v-.766c-.265.262-.499.365-.8.365-.668 0-1.141-.474-1.141-1.15 0-.64.488-1.146 1.111-1.146.315 0 .555.11.83.376v-.766a1.721 1.721 0 0 0-.816-.204c-1.005 0-1.81.775-1.81 1.744M18.571 9.043l-.907-2.24h-.723l1.442 3.421h.356l1.47-3.42h-.718l-.92 2.24M20.51 10.14h1.88v-.566h-1.217v-.9h1.17v-.565h-1.17v-.74h1.217v-.566h-1.88v3.337M23.685 8.338h-.192v-1.01h.203c.414 0 .636.17.636.496 0 .334-.222.514-.647.514zm1.33-.55c0-.625-.437-.985-1.202-.985h-.985v3.337h.665V8.798h.086l.916 1.342h.816l-1.07-1.406c.5-.1.774-.436.774-.946z"/>
        <path fill="#E6772F" d="M17.035 8.48c0 .96-.793 1.74-1.773 1.74-.979 0-1.772-.78-1.772-1.74s.793-1.74 1.772-1.74c.98 0 1.773.78 1.773 1.74"/>
    </g>
</svg>
