<svg xmlns="http://www.w3.org/2000/svg" width="120" height="120" viewBox="0 0 120 120">
    <g fill="none" fill-rule="evenodd" transform="translate(21 33)">
        <rect width="56.7" height="37.3" x="19.97" y="15.06" fill="#FFF" rx="1.49"/>
        <path fill="#96D7FF" d="M25.82 52.37l37.3-37.31H58.9L21.59 52.37z"/>
        <path fill="#FF9797" d="M31.78 52.37l37.31-37.31h-4.22L27.56 52.37z"/>
        <path fill="#96D7FF" d="M37.75 52.37l37.31-37.31h-4.22L33.53 52.37z"/>
        <path fill="#FF9797" d="M43.72 52.37l33-33v-2.82a1.48 1.48 0 0 0-.38-1L39.5 52.37h4.22z"/>
        <path fill="#96D7FF" d="M49.69 52.37l26.99-26.99v-4.22L45.47 52.37z"/>
        <path fill="#FF9797" d="M19.97 28.37l13.31-13.31h-4.23l-9.08 9.08z"/>
        <path fill="#96D7FF" d="M19.97 34.33l19.28-19.27h-4.23L19.97 30.11z"/>
        <path fill="#FF9797" d="M19.97 40.3l25.25-25.24h-4.23L19.97 36.08z"/>
        <path fill="#96D7FF" d="M19.97 46.27l31.21-31.21h-4.22L19.97 42.05z"/>
        <path fill="#FF9797" d="M52.93 15.06L20 48v2.86c.003.368.138.723.38 1l36.8-36.8h-4.25zM55.66 52.37l21.02-21.02v-4.22L51.44 52.37z"/>
        <path fill="#96D7FF" d="M61.63 52.37l15.05-15.05V33.1L57.41 52.37z"/>
        <path fill="#FF9797" d="M67.6 52.37l9.08-9.08v-4.23l-13.3 13.31z"/>
        <path fill="#96D7FF" d="M73.57 52.37l3.11-3.11v-4.23l-7.34 7.34zM19.97 22.4l7.34-7.34h-4.22l-3.12 3.11z"/>
        <path fill="#EEF6FF" d="M22.21 17.3h52.23v32.83H22.21z"/>
        <path fill="#96D7FF" d="M61.01 21.03h9.7v8.95h-9.7z"/>
        <path fill="#727EA5" fill-rule="nonzero" d="M70.71 30.73H61a.75.75 0 0 1-.75-.75V21a.75.75 0 0 1 .75-.74h9.7c.41 0 .745.33.75.74v9a.75.75 0 0 1-.74.73zm-8.95-1.49H70v-7.46h-8.2l-.04 7.46z"/>
        <path fill="#727EA5" fill-rule="nonzero" d="M75.19 53.11H21.47a2.23 2.23 0 0 1-2.24-2.23V16.55a2.23 2.23 0 0 1 2.24-2.23h53.72a2.23 2.23 0 0 1 2.23 2.23v34.33a2.23 2.23 0 0 1-2.23 2.23zm-53.72-37.3a.74.74 0 0 0-.75.74v34.33a.74.74 0 0 0 .75.74h53.72a.74.74 0 0 0 .74-.74V16.55a.74.74 0 0 0-.74-.74H21.47z"/>
        <g fill="#727EA5" opacity=".5">
            <path d="M34.15 39.68h-6.71a.74.74 0 0 1-.75-.74.75.75 0 0 1 .75-.75h6.71a.76.76 0 0 1 .75.75.75.75 0 0 1-.75.74zM47.58 42.67H27.44a.75.75 0 0 1-.75-.75.74.74 0 0 1 .75-.74h20.14c.41 0 .745.33.75.74a.76.76 0 0 1-.75.75zM47.58 45.65H27.44a.75.75 0 1 1 0-1.49h20.14a.75.75 0 1 1 0 1.49z"/>
        </g>
        <path fill="#727EA5" d="M63.25 27a.75.75 0 0 1-.75-.75v-1.49a.75.75 0 0 1 .75-.74.74.74 0 0 1 .74.74v1.49a.74.74 0 0 1-.74.75z"/>
        <path fill="#727EA5" d="M68.47 26.25h-5.22a.75.75 0 0 1-.75-.74.76.76 0 0 1 .75-.75h5.22a.76.76 0 0 1 .75.75.75.75 0 0 1-.75.74z"/>
        <path fill="#727EA5" d="M67 26.25a.7.7 0 0 1-.53-.21l-2.26-2.24a.74.74 0 0 1 1.05-1L67.5 25a.74.74 0 0 1 0 1 .75.75 0 0 1-.5.25z"/>
        <path fill="#727EA5" d="M64.74 28.49a.74.74 0 0 1-.53-1.27L66.45 25a.74.74 0 0 1 1 1.05l-2.24 2.24a.73.73 0 0 1-.47.2z"/>
        <rect width="56.7" height="37.3" x="1.32" y="1.63" fill="#CED8EE" rx="1.49"/>
        <path fill="#7690A8" d="M56.53 36H2.81a1.49 1.49 0 0 1-1.49-1.49v3c0 .823.667 1.49 1.49 1.49h53.72A1.5 1.5 0 0 0 58 37.45v-3A1.49 1.49 0 0 1 56.53 36z" opacity=".3"/>
        <path fill="#EEF6FF" d="M33.52 18.3a6 6 0 0 0-7.7 0l-24 20.23c.27.259.627.405 1 .41h53.71a1.5 1.5 0 0 0 1-.41L33.52 18.3z"/>
        <path fill="#7690A8" d="M4.87 36L1.8 38.53c.27.259.627.405 1 .41h53.73a1.5 1.5 0 0 0 1-.41L54.48 36H4.87zM58 3.73a2.26 2.26 0 0 0-1.5-.61H2.81a2.26 2.26 0 0 0-1.49.61.73.73 0 0 0-.06 1.05l.06.07 24 20.23a6.69 6.69 0 0 0 8.64 0L58 4.85a.75.75 0 0 0 .06-1.05L58 3.73z" opacity=".3"/>
        <path fill="#727EA5" fill-rule="nonzero" d="M56.53 39.68H2.81a2.25 2.25 0 0 1-1.49-.6.73.73 0 0 1-.06-1l.06-.07 24-20.23a6.71 6.71 0 0 1 8.64 0L58 38c.272.27.298.7.06 1l-.06.07a2.24 2.24 0 0 1-1.47.61zM3.37 38.19H56L33 18.87a5.23 5.23 0 0 0-6.72 0L3.37 38.19z"/>
        <path fill="#EEF6FF" d="M25.83 22.27a6 6 0 0 0 7.69 0L57.56 2a1.52 1.52 0 0 0-1-.41H2.81a1.47 1.47 0 0 0-1 .41l24.02 20.27z"/>
        <path fill="#FFF" d="M54.48 4.62L57.55 2a1.5 1.5 0 0 0-1-.41H2.81a1.47 1.47 0 0 0-1 .41l3.07 2.58 49.6.04z"/>
        <path fill="#727EA5" fill-rule="nonzero" d="M56.53 39.68H2.81a2.23 2.23 0 0 1-2.23-2.23V3.12A2.23 2.23 0 0 1 2.81.89h53.72a2.23 2.23 0 0 1 2.24 2.23v34.33a2.23 2.23 0 0 1-2.24 2.23zM2.81 2.38a.74.74 0 0 0-.74.74v34.33c0 .409.331.74.74.74h53.72a.74.74 0 0 0 .75-.74V3.12a.74.74 0 0 0-.75-.74H2.81z"/>
        <path fill="#727EA5" fill-rule="nonzero" d="M29.67 24.43a6.66 6.66 0 0 1-4.32-1.59L1.35 2.6a.73.73 0 0 1-.06-1.05l.06-.07A2.24 2.24 0 0 1 2.84.89h53.69a2.25 2.25 0 0 1 1.5.6c.272.27.298.7.06 1l-.06.07L34 22.84a6.77 6.77 0 0 1-4.33 1.59zm-26.3-22L26.31 21.7a5.21 5.21 0 0 0 6.71 0L56 2.38l-52.63.05z"/>
    </g>
</svg>
