<svg xmlns="http://www.w3.org/2000/svg" width="29" height="18" viewBox="0 0 29 18">
    <g fill="none" fill-rule="evenodd" transform="translate(.004 .72)">
        <rect width="28.089" height="17.28" fill="#006" rx="2.8"/>
        <path fill="#C00" d="M15.766 8.78c0 3.104-2.454 5.62-5.482 5.62-3.027 0-5.481-2.516-5.481-5.62s2.454-5.62 5.481-5.62c3.028 0 5.482 2.516 5.482 5.62"/>
        <path fill="#F90" d="M17.644 3.16c-1.417 0-2.707.55-3.68 1.454a5.67 5.67 0 0 0-.554.595h1.108c.151.189.29.388.418.595h-1.944c-.116.191-.221.39-.315.596h2.575c.088.192.165.39.232.595h-3.04a5.707 5.707 0 0 0-.159.595h3.358a5.8 5.8 0 0 1-.16 2.975h-3.039c.067.204.145.403.232.596h2.576c-.095.205-.2.403-.317.595h-1.943c.127.207.267.406.418.594h1.108a5.56 5.56 0 0 1-.554.596 5.387 5.387 0 0 0 3.68 1.454c3.027 0 5.481-2.516 5.481-5.62s-2.454-5.62-5.481-5.62"/>
        <path fill="#006" d="M9.004 9.395a.999.999 0 0 0-.132-.01c-.338 0-.508.12-.508.354 0 .144.083.236.213.236.242 0 .417-.237.427-.58zm.433 1.033h-.493l.011-.24c-.15.19-.35.28-.623.28-.323 0-.544-.258-.544-.633 0-.565.385-.894 1.045-.894.067 0 .154.007.242.018a.586.586 0 0 0 .024-.15c0-.154-.104-.211-.382-.211a1.94 1.94 0 0 0-.63.104l.083-.521c.296-.09.492-.123.712-.123.51 0 .782.235.781.68.001.12-.018.266-.048.46-.052.335-.163 1.055-.178 1.23zM7.539 10.428h-.595l.341-2.191-.761 2.191h-.406l-.05-2.179-.358 2.18h-.557l.465-2.852h.856l.051 1.596.523-1.596h.951l-.46 2.851M18.38 9.395a.994.994 0 0 0-.133-.01c-.338 0-.508.12-.508.354 0 .144.083.236.213.236.242 0 .417-.237.427-.58zm.432 1.033h-.493l.011-.24c-.15.19-.35.28-.623.28-.323 0-.544-.258-.544-.633 0-.565.385-.894 1.045-.894.067 0 .154.007.242.018a.582.582 0 0 0 .023-.15c0-.154-.103-.211-.381-.211a1.944 1.944 0 0 0-.63.104l.083-.521c.296-.09.492-.123.712-.123.511 0 .781.235.78.68.002.12-.017.266-.047.46-.052.335-.163 1.055-.178 1.23zM12.082 10.393a1.33 1.33 0 0 1-.428.075c-.304 0-.47-.179-.47-.51-.004-.102.044-.371.082-.617.034-.217.258-1.582.258-1.582h.591l-.069.35h.358l-.081.558h-.359c-.068.44-.166.99-.167 1.063 0 .12.062.172.203.172.068 0 .12-.007.16-.022l-.078.513M13.896 10.374c-.204.064-.4.095-.607.094-.663 0-1.008-.355-1.008-1.034 0-.792.44-1.376 1.036-1.376.487 0 .799.327.799.839 0 .17-.022.336-.073.57h-1.178c-.04.336.17.477.514.477.212 0 .403-.045.615-.146l-.098.576zM13.563 9c.003-.049.063-.414-.275-.414-.189 0-.323.147-.378.414h.653zM9.794 8.843c0 .293.139.495.453.647.241.116.279.15.279.256 0 .144-.107.21-.342.21-.178 0-.343-.029-.533-.092l-.082.536c.135.03.256.058.62.068.627 0 .917-.245.917-.775 0-.318-.121-.505-.42-.646-.249-.117-.278-.143-.278-.252 0-.125.1-.189.292-.189.116 0 .276.013.427.035l.085-.538a3.92 3.92 0 0 0-.524-.045c-.665 0-.896.356-.894.785M16.79 8.12c.165 0 .32.043.532.153l.097-.619c-.087-.035-.394-.241-.654-.241-.398 0-.735.203-.972.537-.345-.117-.487.12-.661.356l-.155.037c.012-.078.022-.155.02-.233h-.548c-.074.717-.206 1.444-.31 2.162l-.027.156h.595c.1-.662.154-1.086.187-1.373l.224-.127c.034-.128.138-.171.349-.166-.028.151-.043.31-.043.475 0 .759.4 1.231 1.04 1.231.165 0 .307-.022.527-.083l.104-.65c-.197.1-.359.146-.505.146-.346 0-.556-.262-.556-.694 0-.628.311-1.068.756-1.068M21.828 7.577l-.132.824c-.163-.22-.337-.378-.568-.378-.3 0-.574.233-.753.577-.249-.053-.506-.144-.506-.144v.003c.02-.192.028-.31.026-.35h-.547c-.074.718-.207 1.445-.31 2.163l-.028.156h.596c.08-.535.142-.98.187-1.332.204-.189.306-.353.51-.342a2.031 2.031 0 0 0-.143.752c0 .58.285.962.718.962.218 0 .386-.077.549-.256l-.028.216h.563l.453-2.85h-.587zm-.744 2.316c-.203 0-.305-.154-.305-.457 0-.456.192-.78.461-.78.205 0 .316.16.316.455 0 .46-.195.782-.472.782z"/>
        <path fill="#FFF" d="M7.71 10.259h-.595l.341-2.191-.761 2.191h-.406L6.24 8.08l-.358 2.179h-.557l.465-2.85h.856l.024 1.764.577-1.765h.925l-.46 2.851M9.176 9.226a.965.965 0 0 0-.133-.01c-.337 0-.508.12-.508.353 0 .145.083.237.213.237.243 0 .417-.237.428-.58zm.432 1.033h-.493l.012-.24c-.15.19-.351.28-.624.28-.323 0-.544-.258-.544-.633 0-.565.385-.894 1.045-.894.068 0 .154.007.243.018a.589.589 0 0 0 .023-.15c0-.154-.104-.211-.382-.211a1.933 1.933 0 0 0-.63.104l.083-.521c.296-.09.492-.123.712-.123.511 0 .782.235.781.68a3.04 3.04 0 0 1-.048.459 38.558 38.558 0 0 0-.178 1.231zM17.59 7.485l-.097.619c-.213-.11-.367-.154-.532-.154-.444 0-.756.44-.756 1.068 0 .433.21.694.556.694.146 0 .308-.046.505-.146l-.104.65c-.22.06-.361.083-.526.083-.641 0-1.04-.472-1.04-1.23 0-1.02.552-1.732 1.34-1.732.26 0 .567.113.654.148M18.55 9.226a.958.958 0 0 0-.132-.01c-.337 0-.508.12-.508.353 0 .145.083.237.213.237.242 0 .417-.237.427-.58zm.433 1.033h-.493l.012-.24c-.15.19-.352.28-.624.28-.323 0-.544-.258-.544-.633 0-.565.385-.894 1.045-.894.068 0 .154.007.242.018a.586.586 0 0 0 .024-.15c0-.154-.104-.211-.382-.211-.29-.004-.53.07-.63.104l.083-.521c.296-.09.492-.123.712-.123.51 0 .782.235.781.68.001.119-.018.266-.048.459-.052.336-.162 1.056-.178 1.231zM12.253 10.224c-.163.052-.29.075-.427.075-.305 0-.47-.18-.47-.509-.005-.103.043-.372.081-.618.034-.217.258-1.582.258-1.582h.592l-.07.35h.304l-.08.558h-.305c-.07.441-.167.99-.168 1.063 0 .12.062.172.204.172.067 0 .12-.007.16-.022l-.079.513M14.067 10.205a1.98 1.98 0 0 1-.607.094c-.662 0-1.007-.355-1.007-1.034 0-.793.439-1.376 1.034-1.376.489 0 .8.326.8.84 0 .17-.022.335-.073.57h-1.178c-.04.336.17.476.514.476.212 0 .403-.045.615-.146l-.098.576zm-.332-1.374c.003-.049.062-.414-.276-.414-.188 0-.323.147-.378.414h.654zM9.965 8.674c0 .293.14.495.454.647.24.116.278.15.278.256 0 .144-.106.21-.342.21a1.64 1.64 0 0 1-.533-.092l-.082.535c.135.03.256.058.62.07.627 0 .917-.246.917-.776 0-.318-.121-.505-.42-.646-.249-.117-.277-.143-.277-.252 0-.125.099-.19.291-.19.117 0 .276.014.428.036l.084-.538a3.953 3.953 0 0 0-.524-.045c-.665 0-.896.356-.894.785M22.133 10.259h-.563l.028-.216c-.163.179-.33.256-.549.256-.432 0-.718-.382-.718-.962 0-.771.443-1.421.968-1.421.23 0 .406.097.568.316L22 7.408h.587l-.453 2.851zm-.878-.536c.277 0 .472-.322.472-.78 0-.295-.11-.456-.315-.456-.27 0-.462.324-.462.78 0 .303.103.456.305.456zM19.52 7.94c-.075.718-.207 1.445-.31 2.163l-.028.156h.595c.213-1.418.264-1.694.598-1.66.053-.29.152-.544.226-.672-.249-.054-.388.09-.57.365.014-.118.04-.234.035-.351h-.547M14.62 7.94c-.074.718-.206 1.445-.31 2.163l-.027.156h.596c.213-1.418.264-1.694.597-1.66.054-.29.153-.544.226-.672-.249-.054-.388.09-.57.365.014-.118.04-.234.035-.351h-.546"/>
    </g>
</svg>
