<svg xmlns="http://www.w3.org/2000/svg" width="41" height="25" viewBox="0 0 41 25">
    <g fill="none" fill-rule="evenodd" transform="matrix(1 0 0 -1 0 25)">
        <rect width="39" height="23" x=".574" y=".56" fill="#FFF" stroke="#0A4C81" rx="4"/>
        <path fill="#0079C1" d="M24.369 13.279c-.107-.694-.64-.694-1.156-.694h-.294l.206 1.296c.012.078.08.135.16.135h.135c.351 0 .683 0 .854-.198.103-.12.133-.296.095-.54m-.225 1.812h-1.946a.27.27 0 0 1-.267-.227l-.787-4.958a.162.162 0 0 1 .16-.186h.999c.093 0 .172.067.187.158l.223 1.406a.27.27 0 0 0 .267.227h.616c1.282 0 2.022.616 2.215 1.838.087.534.003.954-.248 1.248-.277.323-.768.494-1.419.494"/>
        <path fill="#00457C" d="M10.487 13.279c-.106-.694-.64-.694-1.156-.694h-.293l.206 1.296c.012.078.08.135.16.135h.135c.35 0 .683 0 .854-.198.102-.12.133-.296.094-.54m-.224 1.812H8.316a.27.27 0 0 1-.267-.227l-.787-4.958a.161.161 0 0 1 .16-.186h.93a.27.27 0 0 1 .267.226l.212 1.338a.27.27 0 0 0 .267.227h.616c1.282 0 2.022.616 2.215 1.838.087.534.004.954-.248 1.248-.277.323-.767.494-1.418.494M14.781 11.499a1.037 1.037 0 0 0-1.052-.884c-.27 0-.487.086-.626.25-.137.162-.19.393-.146.65a1.04 1.04 0 0 0 1.045.89c.264 0 .48-.086.621-.251.143-.167.199-.399.158-.655m1.299 1.802h-.932a.162.162 0 0 1-.16-.136l-.041-.259-.065.094c-.202.29-.652.388-1.101.388-1.03 0-1.91-.775-2.08-1.862-.09-.543.037-1.06.346-1.423.285-.332.69-.47 1.174-.47.83 0 1.29.53 1.29.53l-.041-.258a.161.161 0 0 1 .16-.186h.84a.27.27 0 0 1 .266.226l.504 3.17a.162.162 0 0 1-.16.186"/>
        <path fill="#0079C1" d="M28.663 11.499a1.037 1.037 0 0 0-1.052-.884c-.27 0-.487.086-.626.25-.138.162-.19.393-.146.65a1.04 1.04 0 0 0 1.044.89c.265 0 .48-.086.622-.251.142-.167.199-.399.158-.655m1.298 1.802h-.932a.162.162 0 0 1-.16-.136l-.04-.259-.066.094c-.202.29-.652.388-1.1.388-1.03 0-1.91-.775-2.081-1.862-.09-.543.037-1.06.347-1.423.284-.332.69-.47 1.174-.47.83 0 1.29.53 1.29.53l-.042-.258a.161.161 0 0 1 .16-.186h.84a.27.27 0 0 1 .267.226l.504 3.17a.162.162 0 0 1-.16.186"/>
        <path fill="#00457C" d="M21.044 13.301h-.937a.27.27 0 0 1-.224-.118l-1.292-1.89-.548 1.816a.27.27 0 0 1-.259.192h-.92a.161.161 0 0 1-.154-.213l1.031-3.008-.97-1.36a.161.161 0 0 1 .133-.254h.935c.089 0 .172.043.223.115l3.115 4.467a.161.161 0 0 1-.133.253"/>
        <path fill="#0079C1" d="M31.06 14.953l-.799-5.048a.161.161 0 0 1 .16-.186h.804a.27.27 0 0 1 .267.226l.787 4.958a.161.161 0 0 1-.16.187h-.899a.162.162 0 0 1-.16-.137"/>
    </g>
</svg>
