<svg xmlns="http://www.w3.org/2000/svg" width="29" height="18" viewBox="0 0 29 18">
    <g fill="none" fill-rule="evenodd" transform="matrix(1 0 0 -1 0 18)">
        <rect width="27.389" height="16.58" x=".402" y=".393" fill="#FFF" stroke="#0A4C81" stroke-width=".7" rx="2.8"/>
        <path fill="#0079C1" d="M17.112 9.56c-.074-.499-.449-.499-.811-.499h-.207l.145.933a.114.114 0 0 0 .112.098h.095c.247 0 .48 0 .6-.143.072-.086.093-.213.066-.388m-.157 1.304h-1.367a.191.191 0 0 1-.188-.164l-.552-3.57a.115.115 0 0 1 .112-.133h.701c.066 0 .121.048.132.114l.157 1.012a.19.19 0 0 0 .187.163h.432c.9 0 1.42.444 1.556 1.323.061.385.002.687-.174.899-.195.232-.54.356-.996.356"/>
        <path fill="#00457C" d="M7.364 9.56c-.074-.499-.449-.499-.811-.499h-.207l.145.933a.114.114 0 0 0 .113.098h.094c.247 0 .48 0 .6-.143.072-.086.094-.213.066-.388m-.157 1.304H5.84a.191.191 0 0 1-.188-.164L5.1 7.131a.115.115 0 0 1 .112-.133h.653c.093 0 .173.069.187.163l.15.963a.19.19 0 0 0 .187.163h.433c.9 0 1.42.444 1.555 1.323.061.385.003.687-.174.899-.195.232-.539.356-.996.356M10.38 8.28a.734.734 0 0 0-.74-.637c-.189 0-.34.062-.439.18-.096.116-.133.283-.102.468.059.377.36.641.733.641a.546.546 0 0 0 .437-.181c.1-.12.14-.287.11-.472m.913 1.298h-.655a.115.115 0 0 1-.112-.098l-.03-.187-.045.068c-.142.21-.458.28-.773.28-.723 0-1.34-.559-1.46-1.341-.063-.39.026-.764.243-1.025.2-.239.485-.338.824-.338.583 0 .906.38.906.38l-.03-.184a.115.115 0 0 1 .114-.134h.589a.19.19 0 0 1 .187.163l.354 2.282a.115.115 0 0 1-.112.134"/>
        <path fill="#0079C1" d="M20.128 8.28a.734.734 0 0 0-.74-.637c-.189 0-.341.062-.439.18-.097.116-.133.283-.102.468.059.377.36.641.733.641a.546.546 0 0 0 .437-.181c.1-.12.14-.287.11-.472m.913 1.298h-.655a.115.115 0 0 1-.112-.098l-.03-.187-.045.068c-.142.21-.458.28-.773.28-.723 0-1.34-.559-1.46-1.341-.063-.39.025-.764.243-1.025.2-.239.484-.338.824-.338.583 0 .906.38.906.38l-.03-.184a.115.115 0 0 1 .113-.134h.59a.19.19 0 0 1 .187.163l.354 2.282a.115.115 0 0 1-.112.134"/>
        <path fill="#00457C" d="M14.777 9.577h-.658a.189.189 0 0 1-.157-.085l-.907-1.361-.385 1.308a.19.19 0 0 1-.182.138h-.646a.116.116 0 0 1-.108-.154l.724-2.165-.68-.98c-.054-.076 0-.183.092-.183h.657a.19.19 0 0 1 .156.084l2.188 3.216c.052.077-.002.182-.094.182"/>
        <path fill="#0079C1" d="M21.81 10.766l-.56-3.635a.115.115 0 0 1 .112-.134h.565a.19.19 0 0 1 .187.164l.553 3.57a.115.115 0 0 1-.112.133h-.631a.114.114 0 0 1-.113-.098"/>
    </g>
</svg>
