<svg xmlns="http://www.w3.org/2000/svg" width="13" height="20" viewBox="0 0 13 20">
    <path fill="#FFF" fill-rule="evenodd" d="M6.337 20c-1.106 0-2.472-.76-3.053-1.701l-3.109-5.04a1.302 1.302 0 0 1 2.252-1.304l1.04 1.807V4.775c0-.716.577-1.297 1.3-1.297.718 0 1.3.588 1.3 1.297V10l5.633.87s1.3.434 1.3 2.179v2.169c0 .752-.319 2.001-.683 2.703-.485.935-.857 1.304-.857 1.304-.346.428-1.073.775-1.628.775H6.337zM7.51 5.846a.433.433 0 1 1-.776-.388c.374-.752.214-1.65-.426-2.251-.848-.798-2.235-.798-3.084 0-.635.597-.798 1.486-.434 2.235a.433.433 0 1 1-.78.38c-.53-1.091-.291-2.392.621-3.25 1.182-1.11 3.088-1.11 4.27 0 .92.865 1.153 2.179.609 3.274zm1.57.58a.433.433 0 1 1-.775-.388c.68-1.368.388-3.003-.771-4.093-1.526-1.434-4.01-1.434-5.536 0-1.15 1.081-1.447 2.7-.786 4.063a.433.433 0 1 1-.78.38c-.826-1.704-.454-3.735.974-5.078 1.859-1.747 4.861-1.747 6.72 0 1.44 1.353 1.805 3.405.955 5.116z"/>
</svg>
