<svg xmlns="http://www.w3.org/2000/svg" width="29" height="18" viewBox="0 0 29 18">
    <g fill="none" fill-rule="evenodd" transform="translate(.307 .72)">
        <rect width="28.089" height="17.28" fill="#26337A" rx="2.8"/>
        <path fill="#FFFFFE" d="M11.654 11.39l.864-5.494h1.38l-.863 5.493h-1.38M18.042 6.031a3.339 3.339 0 0 0-1.237-.23c-1.365 0-2.325.745-2.333 1.812-.01.79.685 1.23 1.209 1.493.538.269.718.441.716.682-.004.367-.43.536-.826.536-.553 0-.847-.083-1.3-.288l-.178-.088-.193 1.23c.322.153.919.286 1.538.293 1.45 0 2.393-.737 2.404-1.876.005-.627-.363-1.101-1.16-1.493-.482-.255-.778-.424-.775-.681 0-.229.25-.473.791-.473.452-.008.779.1 1.033.211l.124.063.187-1.191M19.88 9.442c.115-.316.55-1.536.55-1.536-.008.015.114-.318.184-.524l.093.474.32 1.586H19.88zm1.704-3.54h-1.067c-.331 0-.579.097-.724.455l-2.05 5.034h1.45l.29-.825 1.769.002.168.823H22.7l-1.117-5.49zM10.496 5.9L9.145 9.647 9 8.885c-.252-.878-1.036-1.828-1.912-2.305l1.236 4.805 1.46-.001L11.96 5.9h-1.463"/>
        <path fill="#EC982D" d="M7.89 5.897H5.664l-.018.114C7.378 6.466 8.524 7.564 9 8.885L8.516 6.36c-.083-.349-.326-.452-.626-.464"/>
    </g>
</svg>
