<svg xmlns="http://www.w3.org/2000/svg" width="120" height="120" viewBox="0 0 120 120">
    <g fill="none" fill-rule="evenodd" transform="translate(10 28)">
        <path fill="#939FC6" d="M10.53 1.74h78.94a2.64 2.64 0 0 1 2.64 2.63v54.38H7.89V4.37a2.64 2.64 0 0 1 2.64-2.63z"/>
        <path fill="#727EA5" fill-rule="nonzero" d="M92.11 59.63H7.89a.87.87 0 0 1-.87-.88V4.37A3.51 3.51 0 0 1 10.53.86h78.94A3.51 3.51 0 0 1 93 4.37v54.38a.87.87 0 0 1-.89.88zM8.77 57.88h82.46V4.37a1.76 1.76 0 0 0-1.76-1.76H10.53a1.76 1.76 0 0 0-1.76 1.76v53.51z"/>
        <path fill="#CED8EE" d="M60.53 58.75H39.47A1.75 1.75 0 0 1 37.72 57v-.88h24.56V57a1.75 1.75 0 0 1-1.75 1.75z"/>
        <path fill="#727EA5" fill-rule="nonzero" d="M60.53 59.63H39.47A2.63 2.63 0 0 1 36.84 57v-.88a.87.87 0 0 1 .88-.87h24.56a.87.87 0 0 1 .88.87V57a2.63 2.63 0 0 1-2.63 2.63zM38.6 57a.88.88 0 0 0 .87.88h21.06a.88.88 0 0 0 .87-.88H38.6z"/>
        <path fill="#EEF6FF" d="M11.4 5.25h77.19v47.37H11.4z"/>
        <path fill="#7690A8" d="M11.36 5.25H88.6v3.51H11.36z" opacity=".3"/>
        <path fill="#727EA5" fill-rule="nonzero" d="M88.6 53.49H11.4a.87.87 0 0 1-.87-.88V5.25a.87.87 0 0 1 .87-.88h77.2a.87.87 0 0 1 .87.88v47.36a.87.87 0 0 1-.87.88zm-76.32-1.75h75.44V6.12H12.28v45.62z"/>
        <circle cx="21.93" cy="15.77" r="5.26" fill="#FFF27D"/>
        <path fill="#727EA5" fill-rule="nonzero" d="M21.93 21.91a6.14 6.14 0 1 1 0-12.28 6.14 6.14 0 0 1 0 12.28zm0-10.52a4.39 4.39 0 1 0 0 8.78 4.39 4.39 0 0 0 0-8.78z"/>
        <path fill="#FFF" d="M22.91 13.44a5.42 5.42 0 0 1-1.8-.69c-.15-.15 0 .67-.18.73a1.37 1.37 0 0 0-.88 1.68c.016.206.053.41.11.61a.44.44 0 0 0-.11.33c.02.303.101.6.24.87 0 .52.47.94.47 1.34v.46a.25.25 0 0 1-.22.27 4.75 4.75 0 0 0-2 .79 5.26 5.26 0 0 0 6.74 0 4.75 4.75 0 0 0-2-.79.25.25 0 0 1-.22-.27v-.46c0-.37.44-.82.47-1.34.139-.27.22-.567.24-.87a.46.46 0 0 0-.13-.33c.02-.206.057-.41.11-.61a1.39 1.39 0 0 0-.84-1.72z"/>
        <path fill="#727EA5" fill-rule="nonzero" d="M21.93 21.91A6.13 6.13 0 0 1 18 20.48a.87.87 0 0 1 0-1.36 5.08 5.08 0 0 1 1.85-.87l-.1-.17a3 3 0 0 1-.34-.88 2.89 2.89 0 0 1-.25-1.09 1.41 1.41 0 0 1 .07-.45l-.05-.32a2.18 2.18 0 0 1 1-2.43 1 1 0 0 1 .6-1 1 1 0 0 1 1 .2c.348.179.718.31 1.1.39l.39.11a2.23 2.23 0 0 1 1.45 2.7v.31c.048.148.072.304.07.46a3 3 0 0 1-.25 1.09 3.18 3.18 0 0 1-.35.93l-.07.15a5.3 5.3 0 0 1 1.84.88.88.88 0 0 1 .04 1.24l-.12.12a6.14 6.14 0 0 1-3.95 1.42zm-1.41-2a4.42 4.42 0 0 0 2.83 0h-.18a1.15 1.15 0 0 1-1-1.17v-.43c.015-.355.122-.7.31-1a1.4 1.4 0 0 0 .16-.4 1 1 0 0 1 .09-.34 1.9 1.9 0 0 0 .14-.4.9.9 0 0 1-.08-.56L23 15c.1-.59-.13-.68-.32-.74l-.23-.06c-.24-.06-.5-.13-.73-.21a1.12 1.12 0 0 1-.36.29c-.35.15-.45.27-.37.72l.1.61a.84.84 0 0 1-.08.56c.03.14.081.275.15.4a.77.77 0 0 1 .08.34c.037.13.09.254.16.37.185.302.291.646.31 1v.43a1.15 1.15 0 0 1-.95 1.17l-.24.03z"/>
        <path fill="#727EA5" fill-rule="nonzero" d="M20.18 48.23h-3.51a.88.88 0 1 1 0-1.76h3.51a.88.88 0 1 1 0 1.76zm7.01-21.05H16.67a.88.88 0 1 1 0-1.76h10.52a.88.88 0 1 1 0 1.76zm0 5.26H16.67a.88.88 0 1 1 0-1.76h10.52a.88.88 0 1 1 0 1.76zm0 5.26H16.67a.88.88 0 1 1 0-1.75h10.52a.88.88 0 1 1 0 1.75zm0 10.53h-3.51a.88.88 0 1 1 0-1.76h3.51a.88.88 0 1 1 0 1.76z" opacity=".5"/>
        <path fill="#96D7FF" d="M32.46 10.51h22.81V26.3H32.46z"/>
        <path fill="#727EA5" fill-rule="nonzero" d="M55.26 27.18h-22.8a.88.88 0 0 1-.88-.88V10.51a.87.87 0 0 1 .88-.88h22.8a.87.87 0 0 1 .88.88V26.3a.88.88 0 0 1-.88.88zm-21.93-1.76h21.06v-14H33.33v14z"/>
        <path fill="#C9C1F5" d="M60.53 10.51h22.81V26.3H60.53z"/>
        <path fill="#727EA5" fill-rule="nonzero" d="M83.33 27.18h-22.8a.88.88 0 0 1-.88-.88V10.51a.87.87 0 0 1 .88-.88h22.8a.87.87 0 0 1 .88.88V26.3a.88.88 0 0 1-.88.88zM61.4 25.42h21.06v-14H61.4v14z"/>
        <path fill="#B1F1A8" d="M32.46 31.56h22.81v15.79H32.46z"/>
        <path fill="#727EA5" fill-rule="nonzero" d="M55.26 48.23h-22.8a.87.87 0 0 1-.88-.88V31.56a.88.88 0 0 1 .88-.88h22.8a.88.88 0 0 1 .88.88v15.79a.87.87 0 0 1-.88.88zm-21.93-1.76h21.06v-14H33.33v14z"/>
        <path fill="#FF99B1" d="M60.38 31.62h22.81v15.79H60.38z"/>
        <path fill="#727EA5" fill-rule="nonzero" d="M83.33 48.23h-22.8a.87.87 0 0 1-.88-.88V31.56a.88.88 0 0 1 .88-.88h22.8a.88.88 0 0 1 .88.88v15.79a.87.87 0 0 1-.88.88zM61.4 46.47h21.06v-14H61.4v14z"/>
        <path fill="#EEF6FF" d="M99.12 56.12H62.28V57a1.75 1.75 0 0 1-1.75 1.75H39.47A1.75 1.75 0 0 1 37.72 57v-.88H.88v2.63a3.51 3.51 0 0 0 3.51 3.51h91.22a3.51 3.51 0 0 0 3.51-3.51v-2.63z"/>
        <path fill="#7690A8" d="M95.61 59.63H4.39a3.51 3.51 0 0 1-3.51-3.51v2.63a3.51 3.51 0 0 0 3.51 3.51h91.22a3.51 3.51 0 0 0 3.51-3.51v-2.63a3.51 3.51 0 0 1-3.51 3.51z" opacity=".3"/>
        <path fill="#727EA5" fill-rule="nonzero" d="M95.61 63.14H4.39A4.38 4.38 0 0 1 0 58.75v-2.63a.87.87 0 0 1 .88-.87h36.84a.88.88 0 0 1 .88.87V57a.88.88 0 0 0 .87.88h21.06a.88.88 0 0 0 .87-.88v-.88a.88.88 0 0 1 .88-.87h36.84a.87.87 0 0 1 .88.87v2.63a4.38 4.38 0 0 1-4.39 4.39zM1.75 57v1.75a2.64 2.64 0 0 0 2.64 2.64h91.22a2.64 2.64 0 0 0 2.64-2.64V57H63.16a2.63 2.63 0 0 1-2.63 2.63H39.47A2.63 2.63 0 0 1 36.84 57H1.75z"/>
    </g>
</svg>
